<svg xmlns="http://www.w3.org/2000/svg" viewBox="0 0 109.91 109.97"><defs><style>.cls-1,.cls-2,.cls-4{fill:#fff;}.cls-2,.cls-4{stroke:#fff;}.cls-2,.cls-6{stroke-linecap:round;}.cls-2,.cls-4,.cls-5,.cls-6{stroke-miterlimit:10;}.cls-3,.cls-5,.cls-6{fill:#2f5597;}.cls-5,.cls-6{stroke:#2f5597;}</style></defs><title>arrow-link-white</title><g id="Layer_2" data-name="Layer 2"><g id="Layer_1" data-name="Layer 1"><path class="cls-1" d="M92,19.06a1,1,0,0,1,1,1V87.59A12.11,12.11,0,0,1,80.9,99.7H24.47A12.11,12.11,0,0,1,12.36,87.59V31.16a12.11,12.11,0,0,1,12.11-12.1H92M80.9,8.24H24.47A22.93,22.93,0,0,0,1.54,31.16V87.59a22.93,22.93,0,0,0,22.93,22.93H80.9a22.92,22.92,0,0,0,22.92-22.93V31.16A22.92,22.92,0,0,0,80.9,8.24Z" transform="translate(-1.54 -0.55)"/></g><polygon class="cls-2" points="66.15 7.89 102.02 43.75 109.3 0.61 66.15 7.89"/></g><g id="Layer_1-2" data-name="Layer 1"><g id="Layer_1-3" data-name="Layer 1"><rect class="cls-1" x="10.8" y="18.49" width="80.68" height="80.68" rx="5.64" ry="5.64"/><path class="cls-3" d="M87.39,23.81a.87.87,0,0,1,.86.87V84.27A10.68,10.68,0,0,1,77.57,95H27.79A10.68,10.68,0,0,1,17.11,84.27V34.49A10.68,10.68,0,0,1,27.79,23.81h59.6m-9.82-9.54H27.79A20.22,20.22,0,0,0,7.57,34.49V84.27a20.22,20.22,0,0,0,20.22,20.22H77.57A20.22,20.22,0,0,0,97.8,84.27V34.49A20.22,20.22,0,0,0,77.57,14.27Z" transform="translate(-1.54 -0.55)"/><rect class="cls-4" x="70.66" y="11.55" width="28.63" height="28.63"/></g><g id="Layer_2-2" data-name="Layer 2"><rect class="cls-5" x="35.62" y="40.81" width="60.16" height="11.07" transform="translate(-15.07 59.48) rotate(-45)"/><polygon class="cls-6" points="70.99 11.09 98.81 38.92 104.46 5.45 70.99 11.09"/></g></g></svg>