<svg xmlns="http://www.w3.org/2000/svg" viewBox="0 0 114.07 114.14"><defs><style>.cls-1,.cls-3{fill:#fff;}.cls-2,.cls-4,.cls-5{fill:#2f5597;}.cls-3{stroke:#fff;}.cls-3,.cls-4,.cls-5{stroke-miterlimit:10;}.cls-4,.cls-5{stroke:#2f5597;}.cls-5{stroke-linecap:round;}</style></defs><title>arrow-link</title><g id="Layer_1" data-name="Layer 1"><rect class="cls-1" x="5.5" y="15.64" width="93" height="93" rx="6.5" ry="6.5"/><path class="cls-2" d="M104,23a1,1,0,0,1,1,1v80a1,1,0,0,1-1,1H24a1,1,0,0,1-1-1V24a1,1,0,0,1,1-1h80m0-11H24A12,12,0,0,0,12,24v80a12,12,0,0,0,12,12h80a12,12,0,0,0,12-12V24a12,12,0,0,0-12-12Z" transform="translate(-12 -1.86)"/><rect class="cls-3" x="74.5" y="7.64" width="33" height="33"/></g><g id="Layer_2" data-name="Layer 2"><rect class="cls-4" x="72.63" y="14.3" width="12.76" height="69.35" transform="translate(45.77 -43.38) rotate(45)"/><polygon class="cls-5" points="74.88 7.12 106.95 39.19 113.46 0.61 74.88 7.12"/></g></svg>