<svg id="Layer_1" data-name="Layer 1" xmlns="http://www.w3.org/2000/svg" viewBox="0 0 56.64 38.5"><defs><style>.cls-1{fill:#fff;}</style></defs><title>checkmark-white</title><path class="cls-1" d="M1.18,20.88a121.19,121.19,0,0,1,17,9.32c1.34.86,2.69,1.74,4,2.64l.5.34.25.17.12.08,0,0a1,1,0,0,0-.43-.24,1.12,1.12,0,0,0-1,.22c1-1.12,2.14-2.32,3.21-3.48l3.32-3.45q6.71-6.81,14-13A119.79,119.79,0,0,1,57.82,2,120.69,120.69,0,0,1,46.63,17.83q-6.09,7.44-12.82,14.23l-3.39,3.36c-1.17,1.11-2.26,2.19-3.51,3.33a6.31,6.31,0,0,1-5.38,1.66,6,6,0,0,1-2.63-1.12l-.27-.21-.11-.1-.23-.2-.44-.4c-1.2-1.06-2.37-2.15-3.53-3.25A121.34,121.34,0,0,1,1.18,20.88Z" transform="translate(-1.18 -2)"/></svg>